<?xml version="1.0" encoding="UTF-8" standalone="no"?>
<svg width="45px" height="42px" viewBox="0 0 45 42" version="1.1" xmlns="http://www.w3.org/2000/svg" xmlns:xlink="http://www.w3.org/1999/xlink">
    <!-- Generator: Sketch 39.1 (31720) - http://www.bohemiancoding.com/sketch -->
    <title>Combined Shape</title>
    <desc>Created with Sketch.</desc>
    <defs></defs>
    <g id="Page-1" stroke="none" stroke-width="1" fill="none" fill-rule="evenodd">
        <path d="M44.9,15.5 C43.8,5.7 32.8,-1.1 20.5,0.2 C8.2,1.6 -0.9,10.6 0.3,20.4 C0.9,25.6 4.3,29.9 9.1,32.7 C9.3,34.9 8.5,37.6 4.8,40.5 C3.3,41.7 11,43.2 18.3,35.7 C20.4,36 22.5,36 24.8,35.7 C37,34.3 46,25.3 44.9,15.5 Z M33.5604396,13.25 L32.3637363,16.8928571 L28.4835165,16.8928571 L31.6384615,19.1428571 L30.4417582,22.7857143 L33.5604396,20.5 L36.7153846,22.75 L35.5186813,19.1071429 L38.6736264,16.8571429 L34.7934066,16.8571429 L33.5604396,13.25 Z M27.4318681,16.8928571 L23.5516484,16.8928571 L22.3549451,13.25 L21.1582418,16.8928571 L17.278022,16.8571429 L20.432967,19.1071429 L19.2,22.75 L22.3549451,20.5 L25.5098901,22.75 L24.3131868,19.1071429 L27.4318681,16.8928571 Z M14.2318681,22.75 L11.0769231,20.5 L7.92197802,22.75 L9.15494505,19.1071429 L6,16.8571429 L9.88021978,16.8928571 L11.0769231,13.25 L12.2736264,16.8928571 L16.1538462,16.8928571 L12.9989011,19.1071429 L14.2318681,22.75 Z" id="Combined-Shape" fill="#000000"></path>
    </g>
</svg>