<?xml version="1.0" encoding="UTF-8" standalone="no"?>
<svg width="45px" height="42px" viewBox="0 0 45 42" version="1.1" xmlns="http://www.w3.org/2000/svg" xmlns:xlink="http://www.w3.org/1999/xlink">
    <!-- Generator: Sketch 39.1 (31720) - http://www.bohemiancoding.com/sketch -->
    <title>Combined Shape Copy</title>
    <desc>Created with Sketch.</desc>
    <defs>
        <linearGradient x1="-9.04464738%" y1="43.8078612%" x2="111.226927%" y2="43.8078613%" id="linearGradient-1">
            <stop stop-color="#FDB426" offset="0%"></stop>
            <stop stop-color="#FCA028" offset="100%"></stop>
        </linearGradient>
    </defs>
    <g id="Page-1" stroke="none" stroke-width="1" fill="none" fill-rule="evenodd">
        <path d="M44.7063019,15.4592222 C43.6063019,5.65922217 32.6063019,-1.14077783 20.3063019,0.159222167 C8.00630188,1.55922217 -1.09369812,10.5592222 0.106301878,20.3592222 C0.706301878,25.5592222 4.10630188,29.8592222 8.90630188,32.6592222 C9.10630188,34.8592222 8.30630188,37.5592222 4.60630188,40.4592222 C3.10630188,41.6592222 10.8063019,43.1592222 18.1063019,35.6592222 C20.2063019,35.9592222 22.3063019,35.9592222 24.6063019,35.6592222 C36.8063019,34.2592222 45.8063019,25.2592222 44.7063019,15.4592222 Z M33.3667414,13.2092222 L32.1700381,16.8520793 L28.2898184,16.8520793 L31.4447634,19.1020793 L30.2480601,22.7449365 L33.3667414,20.4592222 L36.5216865,22.7092222 L35.3249832,19.066365 L38.4799283,16.816365 L34.5997085,16.816365 L33.3667414,13.2092222 Z M27.23817,16.8520793 L23.3579502,16.8520793 L22.1612469,13.2092222 L20.9645436,16.8520793 L17.0843239,16.816365 L20.2392689,19.066365 L19.0063019,22.7092222 L22.1612469,20.4592222 L25.316192,22.7092222 L24.1194887,19.066365 L27.23817,16.8520793 Z M14.03817,22.7092222 L10.883225,20.4592222 L7.7282799,22.7092222 L8.96124693,19.066365 L5.80630188,16.816365 L9.68652166,16.8520793 L10.883225,13.2092222 L12.0799283,16.8520793 L15.960148,16.8520793 L12.805203,19.066365 L14.03817,22.7092222 Z" id="Combined-Shape-Copy" fill="url(#linearGradient-1)"></path>
    </g>
</svg>